# xmcd
#
# Track frame offsets:
#	182
#	16757
#	30205
#	44680
#	56430
#	89670
#	107315
#	123182
#	167530
#
# Disc length: 2648 seconds
#
# Revision: 1
# Processed by: cddbd v1.5.1PL0 Copyright (c) Steve Scherf et al.
# Submitted via: audiograbber 1.83.01
#
DISCID=5f0a5609
DTITLE=Lester Coombes - The Very Best Of 
DYEAR=1900
DGENRE=Country
TTITLE0=Please Remember Me
TTITLE1=I'm Fine Thankyou
TTITLE2=Fred Nerk
TTITLE3=Blue Eyes Crying In The Rain
TTITLE4=Green Green Grass Of Home
TTITLE5=Wolf Creek Pass
TTITLE6=Sombody's Always Breaking My Heart
TTITLE7=Why Don't You Like Me
TTITLE8=Country Bumpkin
EXTD=
EXTT0=
EXTT1=
EXTT2=
EXTT3=
EXTT4=
EXTT5=
EXTT6=
EXTT7=
EXTT8=
PLAYORDER=
